<svg width="15" height="15" viewBox="0 0 12 12" fill="none" xmlns="http://www.w3.org/2000/svg">
<path d="M11.7472 10.5357C11.9081 10.6967 11.9986 10.915 11.9986 11.1426C11.9986 11.3703 11.9081 11.5886 11.7472 11.7496C11.5862 11.9105 11.3679 12.001 11.1403 12.001C10.9126 12.001 10.6943 11.9105 10.5333 11.7496L6 7.2148L1.46523 11.7481C1.30427 11.9091 1.08595 11.9995 0.858315 11.9995C0.630676 11.9995 0.41236 11.9091 0.251395 11.7481C0.0904294 11.5872 2.39857e-09 11.3689 0 11.1412C-2.39857e-09 10.9136 0.0904294 10.6953 0.251395 10.5343L4.78616 6.00096L0.252823 1.46619C0.0918573 1.30523 0.00142808 1.08691 0.00142808 0.859273C0.00142808 0.631634 0.0918573 0.413318 0.252823 0.252353C0.413788 0.0913875 0.632103 0.000958047 0.859743 0.000958045C1.08738 0.000958042 1.3057 0.0913875 1.46666 0.252353L6 4.78712L10.5348 0.251639C10.6957 0.0906733 10.914 0.000244137 11.1417 0.000244141C11.3693 0.000244144 11.5876 0.0906733 11.7486 0.251639C11.9096 0.412604 12 0.63092 12 0.858559C12 1.0862 11.9096 1.30451 11.7486 1.46548L7.21384 6.00096L11.7472 10.5357Z" fill="#101010"/>
</svg>
