<svg width="18" height="17" viewBox="0 0 18 17" fill="none" xmlns="http://www.w3.org/2000/svg">
<path d="M17.6132 9.80263C17.7937 9.57727 17.8951 9.27166 17.8951 8.953C17.8951 8.63434 17.7937 8.32873 17.6132 8.10337L12.1667 1.30511C12.0779 1.19033 11.9716 1.09878 11.8541 1.0358C11.7367 0.972816 11.6103 0.939664 11.4825 0.938278C11.3547 0.936891 11.2279 0.967297 11.1096 1.02772C10.9912 1.08815 10.8837 1.17738 10.7933 1.29021C10.7029 1.40305 10.6314 1.53723 10.583 1.68492C10.5346 1.83261 10.5103 1.99085 10.5114 2.15042C10.5125 2.30998 10.539 2.46768 10.5895 2.61429C10.64 2.76091 10.7133 2.89352 10.8053 3.00437L14.6083 7.75126L1.85794 7.75126C1.60259 7.75126 1.3577 7.87787 1.17714 8.10324C0.996578 8.32861 0.895141 8.63428 0.895141 8.953C0.895141 9.27172 0.996578 9.57739 1.17714 9.80276C1.3577 10.0281 1.60259 10.1547 1.85794 10.1547L14.6083 10.1547L10.8053 14.9016C10.6299 15.1283 10.5328 15.4318 10.535 15.7469C10.5372 16.062 10.6385 16.3634 10.817 16.5862C10.9955 16.8091 11.237 16.9354 11.4894 16.9382C11.7419 16.9409 11.9851 16.8198 12.1667 16.6009L17.6132 9.80263Z" fill="white"/>
</svg>
